<svg width="30" height="30" viewBox="0 0 30 30" fill="none" xmlns="http://www.w3.org/2000/svg">
<path d="M24.4406 3.74614C24.1397 3.76803 23.8443 3.83864 23.566 3.9552H23.5622C23.295 4.06114 22.0247 4.59551 20.0935 5.40551L13.1728 8.3202C8.20689 10.4108 3.32533 12.4696 3.32533 12.4696L3.38346 12.4471C3.38346 12.4471 3.04689 12.5577 2.69533 12.7986C2.47814 12.9368 2.29124 13.1177 2.14596 13.3302C1.97346 13.5833 1.83471 13.9705 1.88627 14.3708C1.97064 15.0477 2.40939 15.4536 2.72439 15.6777C3.04314 15.9046 3.34689 16.0105 3.34689 16.0105H3.35439L7.93221 17.5527C8.13752 18.2118 9.32721 22.123 9.61314 23.024C9.78189 23.5621 9.94596 23.8986 10.1513 24.1555C10.2506 24.2868 10.3669 24.3965 10.5066 24.4846C10.5792 24.5268 10.6566 24.5602 10.7372 24.584L10.6903 24.5727C10.7044 24.5765 10.7156 24.5877 10.726 24.5915C10.7635 24.6018 10.7888 24.6055 10.8366 24.613C11.5613 24.8324 12.1435 24.3824 12.1435 24.3824L12.1763 24.3561L14.8791 21.8952L19.4091 25.3705L19.5122 25.4146C20.4563 25.829 21.4125 25.5983 21.9178 25.1915C22.4269 24.7818 22.6247 24.2577 22.6247 24.2577L22.6575 24.1733L26.1581 6.23989C26.2575 5.79739 26.2828 5.38301 26.1731 4.98083C26.06 4.57379 25.7989 4.22371 25.441 3.99926C25.1404 3.81656 24.7919 3.72837 24.4406 3.74614ZM24.346 5.66801C24.3422 5.72708 24.3535 5.72051 24.3272 5.83395V5.84426L20.8594 23.5911C20.8444 23.6165 20.8191 23.6718 20.7497 23.7271C20.6766 23.7852 20.6185 23.8218 20.3138 23.7008L14.7731 19.453L11.4263 22.5036L12.1294 18.013L21.1819 9.57551C21.555 9.22864 21.4303 9.15551 21.4303 9.15551C21.4566 8.72989 20.8669 9.03083 20.8669 9.03083L9.45189 16.1024L9.44814 16.0836L3.97689 14.2415V14.2377L3.96283 14.2349C3.97242 14.2317 3.98182 14.2279 3.99096 14.2236L4.02096 14.2086L4.05002 14.1983C4.05002 14.1983 8.93533 12.1396 13.9013 10.049C16.3875 9.00176 18.8925 7.94708 20.8191 7.13333C21.9617 6.65239 23.1054 6.17426 24.2503 5.69895C24.3272 5.66895 24.2906 5.66895 24.346 5.66895V5.66801Z" fill="#B8B8B8"/>
</svg>
