<svg width="35" height="25" viewBox="0 0 35 25" fill="none" xmlns="http://www.w3.org/2000/svg">
<path d="M33.9062 12.3975C33.9062 12.3169 33.9062 12.2254 33.9026 12.1192C33.8989 11.8225 33.8916 11.4893 33.8843 11.134C33.855 10.1123 33.8037 9.09424 33.7231 8.13477C33.6133 6.81275 33.4521 5.71045 33.2324 4.88282C33.0005 4.01911 32.546 3.23138 31.9143 2.59838C31.2826 1.96537 30.4958 1.50926 29.6326 1.27564C28.5962 0.997315 26.5674 0.825195 23.7109 0.718994C22.3523 0.667725 20.8984 0.634765 19.4446 0.616455C18.9355 0.609131 18.4631 0.605469 18.0383 0.601807H16.9617C16.5369 0.605469 16.0645 0.609131 15.5554 0.616455C14.1016 0.634765 12.6477 0.667725 11.2891 0.718994C8.43262 0.828858 6.40015 1.00098 5.36743 1.27564C4.50391 1.50869 3.71681 1.96461 3.085 2.5977C2.45319 3.23079 1.99888 4.01882 1.76758 4.88282C1.54419 5.71045 1.38672 6.81275 1.27686 8.13477C1.19629 9.09424 1.14502 10.1123 1.11572 11.134C1.10474 11.4893 1.10107 11.8225 1.09741 12.1192C1.09741 12.2254 1.09375 12.3169 1.09375 12.3975V12.6025C1.09375 12.6831 1.09375 12.7747 1.09741 12.8809C1.10107 13.1775 1.1084 13.5108 1.11572 13.866C1.14502 14.8877 1.19629 15.9058 1.27686 16.8652C1.38672 18.1873 1.54785 19.2896 1.76758 20.1172C2.23633 21.8714 3.61328 23.2556 5.36743 23.7244C6.40015 24.0027 8.43262 24.1748 11.2891 24.281C12.6477 24.3323 14.1016 24.3653 15.5554 24.3836C16.0645 24.3909 16.5369 24.3946 16.9617 24.3982H18.0383C18.4631 24.3946 18.9355 24.3909 19.4446 24.3836C20.8984 24.3653 22.3523 24.3323 23.7109 24.281C26.5674 24.1712 28.5999 23.999 29.6326 23.7244C31.3867 23.2556 32.7637 21.875 33.2324 20.1172C33.4558 19.2896 33.6133 18.1873 33.7231 16.8652C33.8037 15.9058 33.855 14.8877 33.8843 13.866C33.8953 13.5108 33.8989 13.1775 33.9026 12.8809C33.9026 12.7747 33.9062 12.6831 33.9062 12.6025V12.3975ZM31.2695 12.5879C31.2695 12.6648 31.2695 12.749 31.2659 12.8479C31.2622 13.1336 31.2549 13.4485 31.2476 13.7891C31.2219 14.7632 31.1707 15.7373 31.0938 16.6419C30.9949 17.8211 30.8557 18.7879 30.6836 19.4361C30.4565 20.282 29.79 20.9522 28.9478 21.1756C28.1787 21.3806 26.2415 21.5454 23.6084 21.6443C22.2754 21.6956 20.8398 21.7285 19.408 21.7468C18.9062 21.7542 18.4412 21.7578 18.0237 21.7578H16.9763L15.592 21.7468C14.1602 21.7285 12.7283 21.6956 11.3916 21.6443C8.75855 21.5418 6.81763 21.3806 6.05225 21.1756C5.20996 20.9485 4.54346 20.282 4.31641 19.4361C4.14429 18.7879 4.00513 17.8211 3.90625 16.6419C3.82935 15.7373 3.78174 14.7632 3.75244 13.7891C3.74146 13.4485 3.73779 13.1299 3.73413 12.8479C3.73413 12.749 3.73047 12.6611 3.73047 12.5879V12.4121C3.73047 12.3352 3.73047 12.251 3.73413 12.1521C3.73779 11.8665 3.74512 11.5515 3.75244 11.2109C3.77808 10.2368 3.82935 9.2627 3.90625 8.35816C4.00513 7.17896 4.14429 6.21216 4.31641 5.56397C4.54346 4.71802 5.20996 4.04785 6.05225 3.82447C6.82129 3.61939 8.75855 3.45459 11.3916 3.35571C12.7246 3.30445 14.1602 3.27149 15.592 3.25318C16.0938 3.24585 16.5588 3.24219 16.9763 3.24219H18.0237L19.408 3.25318C20.8398 3.27149 22.2717 3.30445 23.6084 3.35571C26.2415 3.45825 28.1824 3.61939 28.9478 3.82447C29.79 4.05152 30.4565 4.71802 30.6836 5.56397C30.8557 6.21216 30.9949 7.17896 31.0938 8.35816C31.1707 9.2627 31.2183 10.2368 31.2476 11.2109C31.2585 11.5515 31.2622 11.8701 31.2659 12.1521C31.2659 12.251 31.2695 12.3389 31.2695 12.4121V12.5879ZM14.2407 17.4072L22.7368 12.4634L14.2407 7.59278V17.4072Z" fill="#B8B8B8"/>
</svg>
